<svg width="20" height="26" viewBox="0 0 20 26" fill="none" xmlns="http://www.w3.org/2000/svg">
  <path d="M2.26453 25.2581L2.20233 18.5782C2.07571 18.5024 1.95242 18.4245 1.83024 18.3446C1.11939 17.8796 0.719538 17.2938 0.632903 16.6035C0.574036 16.117 0.640678 15.1798 1.75138 14.3686L1.8358 14.3072C1.62328 14.1863 1.41558 14.0593 1.21269 13.9262C0.50184 13.4612 0.101987 12.8754 0.015352 12.185C-0.044626 11.6985 0.0220162 10.7614 1.13272 9.94918C1.28378 9.83959 1.43927 9.7341 1.59811 9.63475C1.53035 9.59276 1.46482 9.55076 1.39929 9.50775C0.688439 9.04276 0.288585 8.45691 0.20195 7.76659C0.143083 7.28009 0.209725 6.34294 1.32043 5.53074C1.6239 5.30927 1.94382 5.10769 2.27786 4.92748C2.34439 4.73143 2.42796 4.54065 2.52776 4.35699L2.86986 3.50383C3.03834 3.08538 3.35441 2.73127 3.76734 2.49835C4.18026 2.26544 4.66608 2.16722 5.1468 2.21947L5.55332 2.26351C5.67661 2.24302 5.80212 2.22766 5.92874 2.21742C5.9976 2.1406 6.09423 2.02999 6.16421 1.946C6.32959 1.74203 6.50682 1.54646 6.69513 1.36015C7.60368 0.483429 8.68329 1.45152e-06 9.73623 1.45152e-06C10.1092 -0.00034222 10.4792 0.0603442 10.8292 0.179238C11.5078 0.41071 11.9632 0.809128 12.2642 1.0744C12.4863 1.27309 12.9462 1.6244 13.5304 2.03818C13.7152 2.0054 13.9031 1.98893 14.0913 1.98902C14.7578 1.99149 15.4051 2.19492 15.9345 2.56827C16.4639 2.94163 16.8464 3.46442 17.0236 4.0569L17.0813 4.1163C17.5845 4.30169 19.3027 4.90085 19.747 6.56826C19.896 7.1298 19.8726 7.71851 19.6793 8.26845C19.6086 8.47723 19.5171 8.67952 19.406 8.87274C19.3126 9.03557 19.2072 9.1923 19.0906 9.34183C18.7503 9.7762 18.338 10.1585 17.8688 10.4746C17.7055 10.5873 17.5467 10.6887 17.3923 10.7819C16.4227 11.3756 15.3339 11.7842 14.1902 11.9833L13.506 25.6053L2.26453 25.2581Z" fill="white"/>
  <path d="M2.32448 12.48C2.87376 12.8406 3.46094 13.1494 4.07717 13.4018L4.09272 15.0968C3.68497 15.2785 3.30019 15.5011 2.94536 15.7605C2.73433 15.9142 2.50996 16.1364 2.54329 16.4089C2.56994 16.6342 2.76543 16.7847 2.94203 16.9015C3.3166 17.1461 3.70885 17.3668 4.11604 17.5621L4.17158 23.5456L11.6733 23.774L11.9321 18.6334L11.9609 18.0404L12.3475 10.3588C13.7496 10.3954 15.1303 10.0351 16.3038 9.32645C16.4393 9.24041 16.5793 9.15028 16.7248 9.05196C17.0326 8.84441 17.3038 8.59429 17.5289 8.31043C17.5924 8.2278 17.6503 8.1416 17.7022 8.05233C17.7605 7.95187 17.8084 7.8466 17.8455 7.7379C17.9336 7.49778 17.9455 7.23946 17.8799 6.99329C17.7011 6.32244 17.0102 5.99981 16.3993 5.77551C16.2238 5.71098 16.0572 5.64236 15.8939 5.57067L15.7829 5.52458L15.7073 5.48975C15.5274 5.40679 15.3364 5.30949 15.1342 5.20093C15.1841 5.07985 15.2101 4.9515 15.2109 4.82197C15.2144 4.54398 15.0981 4.27606 14.8876 4.0771C14.677 3.87813 14.3894 3.7644 14.0879 3.76089C13.938 3.76154 13.7897 3.79019 13.6521 3.84511C13.5144 3.90003 13.3903 3.98008 13.2871 4.08044C12.4685 3.54889 11.6848 2.97295 10.9402 2.35567C10.707 2.15083 10.4648 1.94598 10.1627 1.84356C9.4241 1.59263 8.62883 2.06172 8.08459 2.58714C7.54034 3.11256 7.17714 3.89198 6.29413 3.97392C5.99159 3.97553 5.69238 4.0322 5.41365 4.1407C5.13492 4.24919 4.88217 4.40738 4.6699 4.60616C4.45762 4.80495 4.29001 5.04043 4.17666 5.2991C4.06332 5.55777 4.00648 5.83453 4.00941 6.1135C3.47198 6.31557 2.96857 6.58733 2.51441 6.92057C2.30448 7.07421 2.07901 7.29646 2.11233 7.5689C2.13899 7.7932 2.33447 7.94479 2.51108 8.06155C2.99225 8.37498 3.50214 8.64914 4.03496 8.88091L4.0494 10.4521C3.42858 10.6598 2.84861 10.9593 2.33225 11.339C2.12233 11.4927 1.89797 11.7149 1.93129 11.9873C1.95239 12.2116 2.14565 12.3632 2.32448 12.48Z" fill="white"/>
  <path d="M5.29672 13.8074C4.23148 13.5217 3.22648 13.0715 2.32448 12.4759C2.14565 12.3591 1.95239 12.2076 1.92573 11.9833C1.89241 11.7108 2.11677 11.4886 2.3267 11.3349C3.21115 10.6803 4.28183 10.2752 5.41001 10.1684C5.87317 11.2663 5.66436 12.6664 5.29672 13.8074ZM5.91427 18.2309C4.84911 17.945 3.84415 17.4948 2.94203 16.8995C2.7632 16.7827 2.56994 16.6321 2.54328 16.4068C2.50996 16.1344 2.73433 15.9121 2.94536 15.7585C3.82893 15.102 4.89991 14.6957 6.02867 14.5888C6.49073 15.6858 6.28191 17.0848 5.91427 18.2309ZM5.48332 9.38893C4.41816 9.10302 3.4132 8.65283 2.51107 8.05745C2.33225 7.94479 2.13899 7.79321 2.11011 7.56891C2.07679 7.29647 2.30226 7.07421 2.51219 6.92058C3.39628 6.26341 4.46808 5.85676 5.59772 5.74991C6.05977 6.84889 5.85096 8.24796 5.48332 9.38893Z" fill="#49843A"/>
  <path d="M11.3556 4.5065L11.2234 4.49318L6.57957 3.98108C6.25456 3.94548 5.92506 3.97428 5.61308 4.06555C5.30111 4.15682 5.01387 4.30845 4.77056 4.51032C4.52726 4.71219 4.33349 4.95963 4.20223 5.2361C4.07096 5.51257 4.00522 5.8117 4.0094 6.11349L4.17157 23.5425L11.6733 23.7709L11.9321 18.6304L11.9609 18.0373L12.6351 4.64886L11.3556 4.5065Z" fill="#61A553"/>
  <path d="M12.6351 4.64888L11.9609 18.0374C10.4959 17.2559 9.41296 14.4219 9.41296 11.043C9.41296 8.1486 10.2082 5.65465 11.3556 4.50958L12.6351 4.64888Z" fill="#FFC48A"/>
  <path d="M14.0913 5.88407C14.7109 5.88407 15.2131 5.409 15.2131 4.82298C15.2131 4.23696 14.7109 3.7619 14.0913 3.7619C13.4717 3.7619 12.9695 4.23696 12.9695 4.82298C12.9695 5.409 13.4717 5.88407 14.0913 5.88407Z" fill="#424242"/>
  <path d="M16.034 5.63314C14.6011 5.06368 11.851 3.15763 10.9403 2.35567C10.707 2.15083 10.4649 1.94598 10.1628 1.84356C9.42415 1.59263 8.62889 2.06172 8.08464 2.58714C7.5404 3.11256 7.1772 3.89198 6.29419 3.97392C8.40897 5.12104 13.6348 6.10018 16.034 5.63314Z" fill="#61A553"/>
  <path d="M17.8455 7.73687C17.8085 7.84557 17.7605 7.95084 17.7022 8.0513C17.6503 8.14057 17.5924 8.22677 17.5289 8.3094C17.3039 8.59326 17.0326 8.84339 16.7248 9.05093C16.5793 9.15335 16.4393 9.23939 16.3038 9.32542C14.6655 10.3496 12.2642 10.7009 10.4093 9.99013C10.3616 9.97272 10.3149 9.95429 10.2672 9.9338C9.01206 9.4135 7.84582 8.42104 7.40487 7.16843C7.34959 7.01544 7.30616 6.85903 7.27491 6.70037C7.25575 6.61178 7.24276 6.52215 7.23604 6.43203C7.11942 5.35456 7.56592 4.189 8.44115 3.65949C9.37637 3.09822 10.5304 3.31843 11.57 3.58267C12.1661 3.73677 12.7411 3.95326 13.2838 4.22792L13.4393 4.30167C13.9347 4.55362 14.4045 4.82811 14.9099 5.09031C14.9754 5.12718 15.0421 5.162 15.1109 5.19273C15.1598 5.21936 15.2076 5.24599 15.2609 5.27057C15.6289 5.45825 16.0091 5.62483 16.3993 5.76936C17.0102 5.99366 17.7011 6.31629 17.8799 6.98715C17.9466 7.23493 17.9347 7.49517 17.8455 7.73687Z" fill="#61A553"/>
  <path d="M11.3023 6.57541C12.185 6.57541 12.9006 5.89858 12.9006 5.06368C12.9006 4.22877 12.185 3.55194 11.3023 3.55194C10.4196 3.55194 9.70398 4.22877 9.70398 5.06368C9.70398 5.89858 10.4196 6.57541 11.3023 6.57541Z" fill="#3E3E3E"/>
  <path d="M17.3824 6.96461C17.6585 6.96461 17.8823 6.75826 17.8823 6.50371C17.8823 6.24917 17.6585 6.04282 17.3824 6.04282C17.1064 6.04282 16.8826 6.24917 16.8826 6.50371C16.8826 6.75826 17.1064 6.96461 17.3824 6.96461Z" fill="#49843A"/>
  <path d="M17.5289 8.30941C17.3038 8.59327 17.0326 8.84339 16.7248 9.05094C16.5793 9.15336 16.4393 9.23939 16.3038 9.32542C14.6655 10.3496 12.2642 10.7009 10.4093 9.99014C10.3615 9.97272 10.3149 9.95429 10.2671 9.9338C9.01204 9.41351 7.8458 8.42105 7.40485 7.16844C7.70221 7.15864 7.99949 7.19006 8.28675 7.26164C9.09978 7.46648 9.80952 7.91509 10.537 8.30531C11.2645 8.69553 12.0742 9.03864 12.9139 8.98846C13.5426 8.95261 14.129 8.69963 14.7033 8.45997C15.2775 8.2203 15.8828 7.98883 16.5082 8.00214C16.8741 8.00823 17.2296 8.11525 17.5289 8.30941Z" fill="#49843A"/>
  <path d="M15.2721 8.60335C15.5673 8.53463 15.7899 8.40567 16.0496 8.55213C16.1543 8.61116 16.2162 8.75698 16.2162 8.8594C16.2162 8.96182 16.1447 9.074 15.9941 9.21787C15.7559 9.44535 15.5458 9.53902 15.2166 9.62756C14.9251 9.70595 14.4946 9.67877 14.4391 9.62756C14.3836 9.57635 14.3558 9.57635 14.328 9.52513L14.2725 9.42271C14.2725 9.42271 14.1892 9.26908 14.2725 9.11545C14.3558 8.96182 14.8391 8.70415 15.2721 8.60335Z" fill="#2E6C22"/>
  </svg>
  